<svg xmlns="http://www.w3.org/2000/svg" xmlns:xlink="http://www.w3.org/1999/xlink" viewBox="0 0 40 40"><defs><style>.cls-1{fill:url(#名称未設定グラデーション_29);}.cls-2{fill:#fff;}</style><linearGradient id="名称未設定グラデーション_29" x1="4.42" y1="28.99" x2="35.58" y2="11.01" gradientUnits="userSpaceOnUse"><stop offset="0" stop-color="#f4cd7d"/><stop offset="1" stop-color="#cb9b0c"/></linearGradient></defs><g id="枠"><circle class="cls-1" cx="20" cy="20" r="18"/></g><g id="文字"><path class="cls-2" d="M25.55,11.29,21,11.23a9.54,9.54,0,0,0,5.25,6.07.72.72,0,0,1,.47.67,1,1,0,0,1-.95,1c-.82,0-4.1-2.33-5.62-6.06a10.06,10.06,0,0,1-5.6,6.1.92.92,0,0,1-.38.09.81.81,0,0,1-.81-.81.73.73,0,0,1,.51-.69A8.23,8.23,0,0,0,19,11.23l-4.59.06h0a.71.71,0,0,1-.75-.73.73.73,0,0,1,.77-.75h4.79c.08-1.33.08-2.26.08-2.38V6.81a.72.72,0,0,1,.8-.7.76.76,0,0,1,.83.69v.33c0,.7,0,1.41-.08,2.1l-.05.58h4.76a.73.73,0,0,1,.75.74.72.72,0,0,1-.74.74Z"/><path class="cls-2" d="M17.79,33.57a.66.66,0,0,1-.73.63.67.67,0,0,1-.75-.63h0l.07-4.8A14.86,14.86,0,0,1,14.54,31a.91.91,0,0,1-.6.26A.7.7,0,0,1,13.5,30a14.68,14.68,0,0,0,2.92-3.39l0-.35-2,.05h0a.61.61,0,0,1-.65-.65.64.64,0,0,1,.67-.66h2l0-1.55c-.24,0-1.39.23-1.6.23A.67.67,0,0,1,14,23a.63.63,0,0,1,.6-.64,15.88,15.88,0,0,0,3.9-.86.64.64,0,0,1,.23,0,.7.7,0,0,1,.66.7c0,.58-.8.76-1.65,1,0,.34,0,1.07,0,1.87h1.5a.64.64,0,0,1,.67.66.62.62,0,0,1-.66.65h0l-1.53,0v.93a.44.44,0,0,1,.15,0c.25,0,2.1.89,2.1,1.67a.73.73,0,0,1-.66.72.62.62,0,0,1-.48-.26,6.23,6.23,0,0,0-1.11-1c0,2.25.07,5.27.07,5.27Zm5.39-.13c-1.76,0-2.88,0-2.93-1.68,0-1.16,0-2.4,0-3.66s0-2.51,0-3.64C20.3,23,21.47,23,23,23h1.5A1.53,1.53,0,0,1,26,24.56c.05,1.08.06,2.31.06,3.55s0,2.49-.06,3.62a1.59,1.59,0,0,1-1.62,1.68C24.11,33.42,23.64,33.44,23.18,33.44Zm.07-1.34c1.19,0,1.35-.15,1.37-.75,0-1,0-2.11,0-3.27s0-2.28,0-3.17c0-.68-.36-.71-1.45-.71-1.28,0-1.48.12-1.49.71-.05.88-.06,2-.06,3.07s0,2.43.06,3.42C21.69,32,21.89,32.1,23.25,32.1Z"/></g></svg>