<?xml version="1.0" encoding="UTF-8"?><svg xmlns="http://www.w3.org/2000/svg" viewBox="0 0 500 434"><defs><style>.cls-1{fill:#ffe79e;}.cls-1,.cls-2,.cls-3{stroke-width:0px;}.cls-2{fill:#cb9b0c;}.cls-3{fill:#fff;}</style></defs><g id="_背景"><polygon class="cls-2" points="375.81 .92 125.81 .92 .81 217.43 125.81 433.93 375.81 433.93 500.81 217.43 375.81 .92"/><polygon class="cls-1" points="105.65 301.12 105.65 134.08 250.31 50.56 394.97 134.08 394.97 301.12 250.31 384.64 105.65 301.12"/><path class="cls-3" d="M250.31,63.84l133.16,76.88v153.76l-133.16,76.88-133.16-76.88v-153.76L250.31,63.84M250.31,37.28L94.15,127.44v180.32l156.16,90.16,156.16-90.16V127.44L250.31,37.28h0Z"/></g><g id="_文字"><path class="cls-2" d="M157.69,176.15c-1.06-1.53-1.58-2.92-1.58-4.45,0-3.2,3.17-6.26,6.47-6.26,1.85,0,3.83,1.25,5.15,3.2l31.56,48.37,31.56-48.37c1.32-1.95,3.3-3.2,5.15-3.2,3.43,0,6.47,3.06,6.47,6.26,0,1.53-.53,2.92-1.58,4.45l-35.65,51.57v48.37c0,3.06-2.51,5.28-5.94,5.28s-5.94-2.22-5.94-5.28v-48.37l-35.65-51.57Z"/><path class="cls-2" d="M287.49,167.12c15.05,0,26.94,3.2,36.45,9.87,14,9.73,21.52,25.99,21.52,46.29,0,35.86-21.52,56.44-58.89,56.44h-17.56c-9.24,0-14-5-14-15.01v-82.57c0-10.01,4.75-15.01,14-15.01h18.49ZM267.02,264.56c0,2.5,1.32,3.89,3.7,3.89h15.05c29.31,0,46.61-16.68,46.61-45.04s-16.24-45.04-45.82-45.04h-15.85c-2.51,0-3.7,1.25-3.7,3.89v82.29Z"/></g></svg>