<?xml version="1.0" encoding="UTF-8"?><svg id="_文字" xmlns="http://www.w3.org/2000/svg" viewBox="0 0 500 433"><defs><style>.cls-1{fill:#fff;stroke-width:0px;}</style></defs><path class="cls-1" d="M249.5,52.53l142.16,82.08v164.15l-142.16,82.08-142.16-82.08v-164.15L249.5,52.53M249.5,36.36L93.34,126.52v180.32l156.16,90.16,156.16-90.16V126.52L249.5,36.36h0Z"/><path class="cls-1" d="M366.92,14l116.92,202.51-116.92,202.51h-233.83L16.17,216.51,133.08,14h233.83M375,0H125L0,216.51l125,216.51h250l125-216.51L375,0h0Z"/><path class="cls-1" d="M156.88,175.24c-1.06-1.53-1.58-2.92-1.58-4.45,0-3.2,3.17-6.26,6.47-6.26,1.85,0,3.83,1.25,5.15,3.2l31.56,48.38,31.56-48.38c1.32-1.95,3.3-3.2,5.15-3.2,3.43,0,6.47,3.06,6.47,6.26,0,1.53-.53,2.92-1.58,4.45l-35.65,51.57v48.38c0,3.06-2.51,5.28-5.94,5.28s-5.94-2.22-5.94-5.28v-48.38l-35.65-51.57Z"/><path class="cls-1" d="M286.68,166.2c15.05,0,26.94,3.2,36.45,9.87,14,9.73,21.52,25.99,21.52,46.29,0,35.86-21.52,56.44-58.89,56.44h-17.56c-9.24,0-14-5-14-15.01v-82.57c0-10.01,4.75-15.01,14-15.01h18.49ZM266.21,263.64c0,2.5,1.32,3.89,3.7,3.89h15.05c29.31,0,46.61-16.68,46.61-45.04s-16.24-45.04-45.82-45.04h-15.85c-2.51,0-3.7,1.25-3.7,3.89v82.29Z"/></svg>